<svg width="24" height="22.4" viewBox="0 0 24 24" fill="#63666B" xmlns="http://www.w3.org/2000/svg"><path d="M2.4.8h19.2c.636 0 1.247.248 1.697.69.45.443.703 1.042.703 1.668v17.684c0 .625-.253 1.225-.703 1.667-.45.442-1.06.69-1.697.69H2.4a2.422 2.422 0 01-1.697-.69A2.337 2.337 0 010 20.842V3.158c0-.626.253-1.225.703-1.667C1.153 1.048 1.763.8 2.4.8zm0 4.716v3.537h4.8V5.516H2.4zm7.2 0v3.537h4.8V5.516H9.6zm12 3.537V5.516h-4.8v3.537h4.8zM2.4 11.41v3.537h4.8v-3.536H2.4zm0 9.432h4.8v-3.537H2.4v3.537zm7.2-9.431v3.536h4.8v-3.536H9.6zm0 9.431h4.8v-3.537H9.6v3.537zm12 0v-3.537h-4.8v3.537h4.8zm0-9.431h-4.8v3.536h4.8v-3.536z"/></svg>