<svg width="24" height="24" viewBox="0 0 24 24" fill="#63666B" xmlns="http://www.w3.org/2000/svg">
<path d="M2.4 0.799927H21.6C22.2365 0.799927 22.847 1.04835 23.2971 1.49054C23.7471 1.93273 24 2.53247 24 3.15782V20.842C24 21.4674 23.7471 22.0671 23.2971 22.5093C22.847 22.9515 22.2365 23.1999 21.6 23.1999H2.4C1.76348 23.1999 1.15303 22.9515 0.702944 22.5093C0.252856 22.0671 0 21.4674 0 20.842V3.15782C0 2.53247 0.252856 1.93273 0.702944 1.49054C1.15303 1.04835 1.76348 0.799927 2.4 0.799927ZM2.4 5.51572V9.05256H7.2V5.51572H2.4ZM9.6 5.51572V9.05256H14.4V5.51572H9.6ZM21.6 9.05256V5.51572H16.8V9.05256H21.6ZM2.4 11.4105V14.9473H7.2V11.4105H2.4ZM2.4 20.842H7.2V17.3052H2.4V20.842ZM9.6 11.4105V14.9473H14.4V11.4105H9.6ZM9.6 20.842H14.4V17.3052H9.6V20.842ZM21.6 20.842V17.3052H16.8V20.842H21.6ZM21.6 11.4105H16.8V14.9473H21.6V11.4105Z"/>
</svg>
